<?xml version="1.0" encoding="UTF-8" standalone="no"?>
<!DOCTYPE svg PUBLIC "-//W3C//DTD SVG 1.1//EN"
 "http://www.w3.org/Graphics/SVG/1.1/DTD/svg11.dtd">
<!-- Generated by graphviz version 2.43.0 (0)
 -->
<!-- Title: G Pages: 1 -->
<svg width="381pt" height="404pt"
 viewBox="0.00 0.00 381.24 404.00" xmlns="http://www.w3.org/2000/svg" xmlns:xlink="http://www.w3.org/1999/xlink">
<g id="graph0" class="graph" transform="scale(1 1) rotate(0) translate(4 400)">
<title>G</title>
<polygon fill="white" stroke="transparent" points="-4,4 -4,-400 377.24,-400 377.24,4 -4,4"/>
<!-- root -->
<g id="node1" class="node">
<title>root</title>
<ellipse fill="none" stroke="black" cx="216.05" cy="-378" rx="29.8" ry="18"/>
<text text-anchor="middle" x="216.05" y="-374.3" font-family="Times,serif" font-size="14.00">root</text>
</g>
<!-- pppw -->
<g id="node2" class="node">
<title>pppw</title>
<ellipse fill="none" stroke="black" cx="172.05" cy="-306" rx="36.29" ry="18"/>
<text text-anchor="middle" x="172.05" y="-302.3" font-family="Times,serif" font-size="14.00">pppw</text>
</g>
<!-- root&#45;&#45;pppw -->
<g id="edge1" class="edge">
<title>root&#45;&#45;pppw</title>
<path fill="none" stroke="black" d="M205.84,-360.76C198.83,-349.62 189.56,-334.87 182.5,-323.63"/>
</g>
<!-- sjmn -->
<g id="node3" class="node">
<title>sjmn</title>
<ellipse fill="none" stroke="black" cx="260.05" cy="-306" rx="33.29" ry="18"/>
<text text-anchor="middle" x="260.05" y="-302.3" font-family="Times,serif" font-size="14.00">sjmn</text>
</g>
<!-- root&#45;&#45;sjmn -->
<g id="edge2" class="edge">
<title>root&#45;&#45;sjmn</title>
<path fill="none" stroke="black" d="M226.25,-360.76C233.36,-349.46 242.8,-334.44 249.9,-323.15"/>
</g>
<!-- cczh -->
<g id="node4" class="node">
<title>cczh</title>
<ellipse fill="none" stroke="black" cx="99.05" cy="-234" rx="31.4" ry="18"/>
<text text-anchor="middle" x="99.05" y="-230.3" font-family="Times,serif" font-size="14.00">cczh</text>
</g>
<!-- pppw&#45;&#45;cczh -->
<g id="edge9" class="edge">
<title>pppw&#45;&#45;cczh</title>
<path fill="none" stroke="black" d="M155.85,-289.46C143.58,-277.7 126.83,-261.64 114.7,-250.01"/>
</g>
<!-- lfqf -->
<g id="node12" class="node">
<title>lfqf</title>
<ellipse fill="none" stroke="black" cx="175.05" cy="-234" rx="27" ry="18"/>
<text text-anchor="middle" x="175.05" y="-230.3" font-family="Times,serif" font-size="14.00">lfqf</text>
</g>
<!-- pppw&#45;&#45;lfqf -->
<g id="edge10" class="edge">
<title>pppw&#45;&#45;lfqf</title>
<path fill="none" stroke="black" d="M172.79,-287.7C173.25,-276.85 173.85,-262.92 174.31,-252.1"/>
</g>
<!-- drzm -->
<g id="node10" class="node">
<title>drzm</title>
<ellipse fill="none" stroke="black" cx="258.05" cy="-234" rx="34.39" ry="18"/>
<text text-anchor="middle" x="258.05" y="-230.3" font-family="Times,serif" font-size="14.00">drzm</text>
</g>
<!-- sjmn&#45;&#45;drzm -->
<g id="edge7" class="edge">
<title>sjmn&#45;&#45;drzm</title>
<path fill="none" stroke="black" d="M259.55,-287.7C259.24,-276.85 258.84,-262.92 258.54,-252.1"/>
</g>
<!-- dbpl -->
<g id="node11" class="node">
<title>dbpl</title>
<ellipse fill="none" stroke="black" cx="342.05" cy="-234" rx="31.4" ry="18"/>
<text text-anchor="middle" x="342.05" y="-230.3" font-family="Times,serif" font-size="14.00">dbpl</text>
</g>
<!-- sjmn&#45;&#45;dbpl -->
<g id="edge8" class="edge">
<title>sjmn&#45;&#45;dbpl</title>
<path fill="none" stroke="black" d="M277.04,-290.5C291.2,-278.4 311.28,-261.27 325.36,-249.25"/>
</g>
<!-- sllz -->
<g id="node5" class="node">
<title>sllz</title>
<ellipse fill="none" stroke="black" cx="43.05" cy="-162" rx="27" ry="18"/>
<text text-anchor="middle" x="43.05" y="-158.3" font-family="Times,serif" font-size="14.00">sllz</text>
</g>
<!-- cczh&#45;&#45;sllz -->
<g id="edge3" class="edge">
<title>cczh&#45;&#45;sllz</title>
<path fill="none" stroke="black" d="M86.62,-217.46C77.34,-205.86 64.71,-190.08 55.44,-178.49"/>
</g>
<!-- lgvd -->
<g id="node6" class="node">
<title>lgvd</title>
<ellipse fill="none" stroke="black" cx="119.05" cy="-162" rx="30.59" ry="18"/>
<text text-anchor="middle" x="119.05" y="-158.3" font-family="Times,serif" font-size="14.00">lgvd</text>
</g>
<!-- cczh&#45;&#45;lgvd -->
<g id="edge4" class="edge">
<title>cczh&#45;&#45;lgvd</title>
<path fill="none" stroke="black" d="M103.89,-216.05C107.03,-205.05 111.11,-190.76 114.25,-179.79"/>
</g>
<!-- ptdq -->
<g id="node7" class="node">
<title>ptdq</title>
<ellipse fill="none" stroke="black" cx="80.05" cy="-90" rx="32.49" ry="18"/>
<text text-anchor="middle" x="80.05" y="-86.3" font-family="Times,serif" font-size="14.00">ptdq</text>
</g>
<!-- lgvd&#45;&#45;ptdq -->
<g id="edge12" class="edge">
<title>lgvd&#45;&#45;ptdq</title>
<path fill="none" stroke="black" d="M110,-144.76C103.79,-133.62 95.57,-118.87 89.31,-107.63"/>
</g>
<!-- ljgn -->
<g id="node13" class="node">
<title>ljgn</title>
<ellipse fill="none" stroke="black" cx="159.05" cy="-90" rx="28.7" ry="18"/>
<text text-anchor="middle" x="159.05" y="-86.3" font-family="Times,serif" font-size="14.00">ljgn</text>
</g>
<!-- lgvd&#45;&#45;ljgn -->
<g id="edge11" class="edge">
<title>lgvd&#45;&#45;ljgn</title>
<path fill="none" stroke="black" d="M128.32,-144.76C134.79,-133.46 143.37,-118.44 149.82,-107.15"/>
</g>
<!-- humn -->
<g id="node8" class="node">
<title>humn</title>
<ellipse fill="none" stroke="black" cx="37.05" cy="-18" rx="37.09" ry="18"/>
<text text-anchor="middle" x="37.05" y="-14.3" font-family="Times,serif" font-size="14.00">humn</text>
</g>
<!-- ptdq&#45;&#45;humn -->
<g id="edge5" class="edge">
<title>ptdq&#45;&#45;humn</title>
<path fill="none" stroke="black" d="M70.07,-72.76C63.23,-61.62 54.16,-46.87 47.26,-35.63"/>
</g>
<!-- dvpt -->
<g id="node9" class="node">
<title>dvpt</title>
<ellipse fill="none" stroke="black" cx="124.05" cy="-18" rx="31.7" ry="18"/>
<text text-anchor="middle" x="124.05" y="-14.3" font-family="Times,serif" font-size="14.00">dvpt</text>
</g>
<!-- ptdq&#45;&#45;dvpt -->
<g id="edge6" class="edge">
<title>ptdq&#45;&#45;dvpt</title>
<path fill="none" stroke="black" d="M90.25,-72.76C97.36,-61.46 106.8,-46.44 113.9,-35.15"/>
</g>
<!-- hmdt -->
<g id="node14" class="node">
<title>hmdt</title>
<ellipse fill="none" stroke="black" cx="238.05" cy="-162" rx="35.19" ry="18"/>
<text text-anchor="middle" x="238.05" y="-158.3" font-family="Times,serif" font-size="14.00">hmdt</text>
</g>
<!-- drzm&#45;&#45;hmdt -->
<g id="edge13" class="edge">
<title>drzm&#45;&#45;hmdt</title>
<path fill="none" stroke="black" d="M253.21,-216.05C250.11,-205.21 246.1,-191.18 242.98,-180.28"/>
</g>
<!-- zczc -->
<g id="node15" class="node">
<title>zczc</title>
<ellipse fill="none" stroke="black" cx="322.05" cy="-162" rx="30.59" ry="18"/>
<text text-anchor="middle" x="322.05" y="-158.3" font-family="Times,serif" font-size="14.00">zczc</text>
</g>
<!-- drzm&#45;&#45;zczc -->
<g id="edge14" class="edge">
<title>drzm&#45;&#45;zczc</title>
<path fill="none" stroke="black" d="M272.25,-217.46C282.86,-205.86 297.29,-190.08 307.88,-178.49"/>
</g>
</g>
</svg>
