<?xml version="1.0" encoding="UTF-8" standalone="no"?>
<!DOCTYPE svg PUBLIC "-//W3C//DTD SVG 1.1//EN"
 "http://www.w3.org/Graphics/SVG/1.1/DTD/svg11.dtd">
<!-- Generated by graphviz version 2.43.0 (0)
 -->
<!-- Title: %3 Pages: 1 -->
<svg width="262pt" height="620pt"
 viewBox="0.00 0.00 261.85 620.00" xmlns="http://www.w3.org/2000/svg" xmlns:xlink="http://www.w3.org/1999/xlink">
<g id="graph0" class="graph" transform="scale(1 1) rotate(0) translate(4 616)">
<title>%3</title>
<polygon fill="white" stroke="transparent" points="-4,4 -4,-616 257.85,-616 257.85,4 -4,4"/>
<!-- humn -->
<g id="node1" class="node">
<title>humn</title>
<ellipse fill="none" stroke="black" cx="71.85" cy="-594" rx="37.09" ry="18"/>
<text text-anchor="middle" x="71.85" y="-590.3" font-family="Times,serif" font-size="14.00">humn</text>
</g>
<!-- ptdq -->
<g id="node2" class="node">
<title>ptdq</title>
<ellipse fill="none" stroke="black" cx="71.85" cy="-522" rx="32.49" ry="18"/>
<text text-anchor="middle" x="71.85" y="-518.3" font-family="Times,serif" font-size="14.00">ptdq</text>
</g>
<!-- humn&#45;&gt;ptdq -->
<g id="edge1" class="edge">
<title>humn&#45;&gt;ptdq</title>
<path fill="none" stroke="black" d="M71.85,-575.7C71.85,-567.98 71.85,-558.71 71.85,-550.11"/>
<polygon fill="black" stroke="black" points="75.35,-550.1 71.85,-540.1 68.35,-550.1 75.35,-550.1"/>
</g>
<!-- dvpt -->
<g id="node3" class="node">
<title>dvpt</title>
<ellipse fill="none" stroke="black" cx="31.85" cy="-450" rx="31.7" ry="18"/>
<text text-anchor="middle" x="31.85" y="-446.3" font-family="Times,serif" font-size="14.00">dvpt</text>
</g>
<!-- ptdq&#45;&gt;dvpt -->
<g id="edge2" class="edge">
<title>ptdq&#45;&gt;dvpt</title>
<path fill="none" stroke="black" d="M62.37,-504.41C57.59,-496.04 51.68,-485.71 46.34,-476.37"/>
<polygon fill="black" stroke="black" points="49.26,-474.42 41.26,-467.47 43.18,-477.89 49.26,-474.42"/>
</g>
<!-- lgvd -->
<g id="node4" class="node">
<title>lgvd</title>
<ellipse fill="none" stroke="black" cx="111.85" cy="-450" rx="30.59" ry="18"/>
<text text-anchor="middle" x="111.85" y="-446.3" font-family="Times,serif" font-size="14.00">lgvd</text>
</g>
<!-- ptdq&#45;&gt;lgvd -->
<g id="edge3" class="edge">
<title>ptdq&#45;&gt;lgvd</title>
<path fill="none" stroke="black" d="M81.33,-504.41C86.11,-496.04 92.01,-485.71 97.35,-476.37"/>
<polygon fill="black" stroke="black" points="100.51,-477.89 102.44,-467.47 94.44,-474.42 100.51,-477.89"/>
</g>
<!-- ljgn -->
<g id="node5" class="node">
<title>ljgn</title>
<ellipse fill="none" stroke="black" cx="72.85" cy="-378" rx="28.7" ry="18"/>
<text text-anchor="middle" x="72.85" y="-374.3" font-family="Times,serif" font-size="14.00">ljgn</text>
</g>
<!-- lgvd&#45;&gt;ljgn -->
<g id="edge4" class="edge">
<title>lgvd&#45;&gt;ljgn</title>
<path fill="none" stroke="black" d="M102.8,-432.76C98.03,-424.19 92.07,-413.49 86.72,-403.9"/>
<polygon fill="black" stroke="black" points="89.77,-402.18 81.84,-395.15 83.65,-405.59 89.77,-402.18"/>
</g>
<!-- cczh -->
<g id="node6" class="node">
<title>cczh</title>
<ellipse fill="none" stroke="black" cx="150.85" cy="-378" rx="31.4" ry="18"/>
<text text-anchor="middle" x="150.85" y="-374.3" font-family="Times,serif" font-size="14.00">cczh</text>
</g>
<!-- lgvd&#45;&gt;cczh -->
<g id="edge5" class="edge">
<title>lgvd&#45;&gt;cczh</title>
<path fill="none" stroke="black" d="M120.89,-432.76C125.55,-424.4 131.34,-414.02 136.58,-404.61"/>
<polygon fill="black" stroke="black" points="139.77,-406.07 141.58,-395.63 133.66,-402.67 139.77,-406.07"/>
</g>
<!-- sllz -->
<g id="node7" class="node">
<title>sllz</title>
<ellipse fill="none" stroke="black" cx="109.85" cy="-306" rx="27" ry="18"/>
<text text-anchor="middle" x="109.85" y="-302.3" font-family="Times,serif" font-size="14.00">sllz</text>
</g>
<!-- cczh&#45;&gt;sllz -->
<g id="edge6" class="edge">
<title>cczh&#45;&gt;sllz</title>
<path fill="none" stroke="black" d="M141.34,-360.76C136.32,-352.19 130.05,-341.49 124.43,-331.9"/>
<polygon fill="black" stroke="black" points="127.38,-330.01 119.3,-323.15 121.34,-333.55 127.38,-330.01"/>
</g>
<!-- pppw -->
<g id="node8" class="node">
<title>pppw</title>
<ellipse fill="none" stroke="black" cx="190.85" cy="-306" rx="36.29" ry="18"/>
<text text-anchor="middle" x="190.85" y="-302.3" font-family="Times,serif" font-size="14.00">pppw</text>
</g>
<!-- cczh&#45;&gt;pppw -->
<g id="edge7" class="edge">
<title>cczh&#45;&gt;pppw</title>
<path fill="none" stroke="black" d="M160.12,-360.76C164.9,-352.4 170.84,-342.02 176.22,-332.61"/>
<polygon fill="black" stroke="black" points="179.42,-334.05 181.34,-323.63 173.34,-330.58 179.42,-334.05"/>
</g>
<!-- root -->
<g id="node9" class="node">
<title>root</title>
<ellipse fill="none" stroke="black" cx="154.85" cy="-234" rx="27" ry="18"/>
<text text-anchor="middle" x="154.85" y="-230.3" font-family="Times,serif" font-size="14.00">=</text>
</g>
<!-- pppw&#45;&gt;root -->
<g id="edge9" class="edge">
<title>pppw&#45;&gt;root</title>
<path fill="none" stroke="black" d="M182.32,-288.41C178.01,-280.04 172.7,-269.71 167.89,-260.37"/>
<polygon fill="black" stroke="black" points="171,-258.76 163.32,-251.47 164.78,-261.96 171,-258.76"/>
</g>
<!-- lfqf -->
<g id="node10" class="node">
<title>lfqf</title>
<ellipse fill="none" stroke="black" cx="226.85" cy="-234" rx="27" ry="18"/>
<text text-anchor="middle" x="226.85" y="-230.3" font-family="Times,serif" font-size="14.00">lfqf</text>
</g>
<!-- pppw&#45;&gt;lfqf -->
<g id="edge8" class="edge">
<title>pppw&#45;&gt;lfqf</title>
<path fill="none" stroke="black" d="M199.38,-288.41C203.68,-280.04 209,-269.71 213.8,-260.37"/>
<polygon fill="black" stroke="black" points="216.92,-261.96 218.38,-251.47 210.69,-258.76 216.92,-261.96"/>
</g>
<!-- sjmn -->
<g id="node11" class="node">
<title>sjmn</title>
<ellipse fill="none" stroke="black" cx="154.85" cy="-162" rx="33.29" ry="18"/>
<text text-anchor="middle" x="154.85" y="-158.3" font-family="Times,serif" font-size="14.00">sjmn</text>
</g>
<!-- root&#45;&gt;sjmn -->
<g id="edge10" class="edge">
<title>root&#45;&gt;sjmn</title>
<path fill="none" stroke="black" d="M154.85,-215.7C154.85,-207.98 154.85,-198.71 154.85,-190.11"/>
<polygon fill="black" stroke="black" points="158.35,-190.1 154.85,-180.1 151.35,-190.1 158.35,-190.1"/>
</g>
<!-- drzm -->
<g id="node12" class="node">
<title>drzm</title>
<ellipse fill="none" stroke="black" cx="112.85" cy="-90" rx="34.39" ry="18"/>
<text text-anchor="middle" x="112.85" y="-86.3" font-family="Times,serif" font-size="14.00">drzm</text>
</g>
<!-- sjmn&#45;&gt;drzm -->
<g id="edge11" class="edge">
<title>sjmn&#45;&gt;drzm</title>
<path fill="none" stroke="black" d="M145.11,-144.76C140.04,-136.32 133.73,-125.8 128.03,-116.31"/>
<polygon fill="black" stroke="black" points="130.97,-114.41 122.83,-107.63 124.97,-118.01 130.97,-114.41"/>
</g>
<!-- dbpl -->
<g id="node13" class="node">
<title>dbpl</title>
<ellipse fill="none" stroke="black" cx="196.85" cy="-90" rx="31.4" ry="18"/>
<text text-anchor="middle" x="196.85" y="-86.3" font-family="Times,serif" font-size="14.00">dbpl</text>
</g>
<!-- sjmn&#45;&gt;dbpl -->
<g id="edge12" class="edge">
<title>sjmn&#45;&gt;dbpl</title>
<path fill="none" stroke="black" d="M164.59,-144.76C169.73,-136.19 176.15,-125.49 181.91,-115.9"/>
<polygon fill="black" stroke="black" points="185.02,-117.52 187.16,-107.15 179.01,-113.92 185.02,-117.52"/>
</g>
<!-- hmdt -->
<g id="node14" class="node">
<title>hmdt</title>
<ellipse fill="none" stroke="black" cx="70.85" cy="-18" rx="35.19" ry="18"/>
<text text-anchor="middle" x="70.85" y="-14.3" font-family="Times,serif" font-size="14.00">hmdt</text>
</g>
<!-- drzm&#45;&gt;hmdt -->
<g id="edge13" class="edge">
<title>drzm&#45;&gt;hmdt</title>
<path fill="none" stroke="black" d="M102.89,-72.41C97.82,-63.95 91.54,-53.49 85.89,-44.08"/>
<polygon fill="black" stroke="black" points="88.88,-42.24 80.73,-35.47 82.87,-45.85 88.88,-42.24"/>
</g>
<!-- zczc -->
<g id="node15" class="node">
<title>zczc</title>
<ellipse fill="none" stroke="black" cx="154.85" cy="-18" rx="30.59" ry="18"/>
<text text-anchor="middle" x="154.85" y="-14.3" font-family="Times,serif" font-size="14.00">zczc</text>
</g>
<!-- drzm&#45;&gt;zczc -->
<g id="edge14" class="edge">
<title>drzm&#45;&gt;zczc</title>
<path fill="none" stroke="black" d="M122.8,-72.41C127.87,-63.95 134.15,-53.49 139.8,-44.08"/>
<polygon fill="black" stroke="black" points="142.82,-45.85 144.97,-35.47 136.82,-42.24 142.82,-45.85"/>
</g>
</g>
</svg>
